<svg xmlns="http://www.w3.org/2000/svg" viewBox="0 0 240 240" width="240" height="240">
  <!-- Checkwright mark: a carpenter's try square rotated 45° so it reads as a
       checkmark. Stock (thick arm) = brass, blade (thin arm) = steel; ruler
       graduations and the hang-hole are cut out (transparent). -->
  <g transform="translate(120 120) scale(1.4) translate(-103 -65.9) rotate(-45 86 114)">
    <path fill="#5B6B7F" fill-rule="evenodd" d="M86,96 H204 V114 H86 Z M124,96 h3 v9 h-3 z M136,96 h3 v6 h-3 z M148,96 h3 v9 h-3 z M160,96 h3 v6 h-3 z M172,96 h3 v9 h-3 z M184,96 h3 v6 h-3 z M196,96 h3 v9 h-3 z"/>
    <path fill="#C19A3D" fill-rule="evenodd" d="M86,44 H112 V114 H86 Z M105,58 a6,6 0 1 1 -12,0 a6,6 0 1 1 12,0 z"/>
  </g>
</svg>
